<svg width="1345" height="573" viewBox="0 0 1345 573" fill="none" xmlns="http://www.w3.org/2000/svg">
<g filter="url(#filter0_d_11_111)">
<path fill-rule="evenodd" clip-rule="evenodd" d="M21.1043 283.721C21.0335 284.183 20.9655 284.645 20.9002 285.108C9.05294 369.123 92.8047 450.395 207.965 466.634C295.666 479.001 376.292 450.085 414.987 398.484C437.707 408.638 462.981 416.021 489.981 419.828C509.482 422.578 528.632 423.287 547.05 422.159C571.952 480.039 639.894 527.542 724.983 539.541C840.144 555.78 943.104 500.837 954.951 416.822C955.004 416.449 955.055 416.076 955.103 415.704C969.816 426.349 986.443 435.635 1004.59 443.178C1021.37 503.645 1078.09 552.86 1151.17 563.165C1246.03 576.542 1332.54 519.279 1344.39 435.264C1350.68 390.644 1334.65 347.452 1304.02 314.753C1298.51 239.898 1220.14 172.208 1116.15 157.544C1109.57 156.616 1103.04 155.921 1096.55 155.45C1062.93 125.281 1015.51 103.065 961.057 95.3869C948.823 93.6617 936.727 92.7399 924.863 92.571C891.249 62.4591 843.873 40.2897 789.493 32.6213C689.853 18.5706 599.345 57.8092 569.086 123.06C557.441 119.859 545.346 117.34 532.884 115.582C490.153 109.557 449.103 113.332 413.763 124.756C390.404 64.979 321.245 15.4505 234.101 3.16192C142.801 -9.71263 59.1694 22.154 22.5293 77.7776C-6.44838 99.4046 -25.8594 128.426 -30.6115 162.126C-36.8655 206.476 -16.4794 250.063 21.1043 283.721Z" fill="#7DD3FC"/>
</g>
<defs>
<filter id="filter0_d_11_111" x="-31.7284" y="0.317505" width="1385.16" height="572.472" filterUnits="userSpaceOnUse" color-interpolation-filters="sRGB">
<feFlood flood-opacity="0" result="BackgroundImageFix"/>
<feColorMatrix in="SourceAlpha" type="matrix" values="0 0 0 0 0 0 0 0 0 0 0 0 0 0 0 0 0 0 127 0" result="hardAlpha"/>
<feOffset dx="3.84317" dy="3.84317"/>
<feGaussianBlur stdDeviation="1.92159"/>
<feComposite in2="hardAlpha" operator="out"/>
<feColorMatrix type="matrix" values="0 0 0 0 0 0 0 0 0 0 0 0 0 0 0 0 0 0 0.25 0"/>
<feBlend mode="normal" in2="BackgroundImageFix" result="effect1_dropShadow_11_111"/>
<feBlend mode="normal" in="SourceGraphic" in2="effect1_dropShadow_11_111" result="shape"/>
</filter>
</defs>
</svg>
