<svg width="652" height="803" viewBox="0 0 652 803" fill="none" xmlns="http://www.w3.org/2000/svg">
<mask id="mask0_99_2" style="mask-type:alpha" maskUnits="userSpaceOnUse" x="43" y="-22" width="565" height="556">
<path d="M326.168 533.31L43.8045 -20.5208L607.158 -21.2193L326.168 533.31Z" fill="#FB7185"/>
</mask>
<g mask="url(#mask0_99_2)">
<g filter="url(#filter0_f_99_2)">
<path d="M324.294 551.888L61.9519 20.7838L590.447 22.6837L324.294 551.888Z" fill="#F43F5E"/>
</g>
</g>
<g filter="url(#filter1_d_99_2)">
<path d="M288.68 541.596C301.404 507.525 349.596 507.525 362.32 541.596L363.079 543.63C368.361 557.774 381.871 567.15 396.968 567.15L405.643 567.15C439.374 567.15 452.142 611.243 423.631 629.266V629.266C410.163 637.78 404.59 654.789 410.164 669.716V669.716C421.907 701.161 387.295 730.363 358.922 712.427L346.804 704.767C333.792 696.542 317.208 696.542 304.196 704.767L292.078 712.427C263.705 730.363 229.093 701.161 240.836 669.716V669.716C246.41 654.789 240.837 637.78 227.369 629.266V629.266C198.858 611.243 211.626 567.15 245.357 567.15L254.032 567.15C269.129 567.15 282.639 557.774 287.921 543.63L288.68 541.596Z" fill="#FCD34D"/>
<path d="M306.598 577.594C312.548 559.284 338.452 559.284 344.402 577.594V577.594C347.062 585.783 354.693 591.327 363.303 591.327V591.327C382.556 591.327 390.561 615.963 374.985 627.28V627.28C368.019 632.341 365.104 641.311 367.765 649.5V649.5C373.715 667.81 352.758 683.037 337.182 671.72V671.72C330.216 666.659 320.784 666.659 313.818 671.72V671.72C298.242 683.037 277.285 667.81 283.235 649.5V649.5C285.896 641.311 282.981 632.341 276.015 627.28V627.28C260.439 615.963 268.444 591.327 287.697 591.327V591.327C296.307 591.327 303.938 585.783 306.598 577.594V577.594Z" fill="#EAB308"/>
</g>
<defs>
<filter id="filter0_f_99_2" x="-38.0481" y="-79.2162" width="728.495" height="731.104" filterUnits="userSpaceOnUse" color-interpolation-filters="sRGB">
<feFlood flood-opacity="0" result="BackgroundImageFix"/>
<feBlend mode="normal" in="SourceGraphic" in2="BackgroundImageFix" result="shape"/>
<feGaussianBlur stdDeviation="50" result="effect1_foregroundBlur_99_2"/>
</filter>
<filter id="filter1_d_99_2" x="211.634" y="516.043" width="227.732" height="211.619" filterUnits="userSpaceOnUse" color-interpolation-filters="sRGB">
<feFlood flood-opacity="0" result="BackgroundImageFix"/>
<feColorMatrix in="SourceAlpha" type="matrix" values="0 0 0 0 0 0 0 0 0 0 0 0 0 0 0 0 0 0 127 0" result="hardAlpha"/>
<feOffset dy="9.75591"/>
<feComposite in2="hardAlpha" operator="out"/>
<feColorMatrix type="matrix" values="0 0 0 0 0 0 0 0 0 0 0 0 0 0 0 0 0 0 0.25 0"/>
<feBlend mode="normal" in2="BackgroundImageFix" result="effect1_dropShadow_99_2"/>
<feBlend mode="normal" in="SourceGraphic" in2="effect1_dropShadow_99_2" result="shape"/>
</filter>
</defs>
</svg>
